<svg xmlns="http://www.w3.org/2000/svg" viewBox="0 0 460.37 709.01"><path d="M33.66,454.38l.43,21.36H32.48q-1.14-8-5.61-12.92t-9.66-4.89a8.15,8.15,0,0,0-6.35,2.58,8.56,8.56,0,0,0-2.34,5.93,8.34,8.34,0,0,0,.83,3.78A14.93,14.93,0,0,0,13,474.61a79.48,79.48,0,0,0,8.54,5.53q9.36,5.53,12.63,10.44a21.05,21.05,0,0,1-2,25.07A17,17,0,0,1,19,521.44a18.36,18.36,0,0,1-4.76-.61,31.63,31.63,0,0,1-5.62-2.32,7.34,7.34,0,0,0-3.11-.94,3.51,3.51,0,0,0-2.16.94,6.57,6.57,0,0,0-1.85,2.88H0V497.2H1.46q1.72,10.2,6.67,15.57t10.64,5.36a9,9,0,0,0,7-2.88,9.7,9.7,0,0,0,2.62-6.71,10.13,10.13,0,0,0-1-4.39,13.54,13.54,0,0,0-3.05-4,44.74,44.74,0,0,0-7.24-5A61.67,61.67,0,0,1,6.66,487.8,21.81,21.81,0,0,1,1.76,481a19.51,19.51,0,0,1-1.71-8.22,19.2,19.2,0,0,1,4.68-13,15,15,0,0,1,11.8-5.39,16.78,16.78,0,0,1,5,.76,23.14,23.14,0,0,1,4.5,2.1,9.52,9.52,0,0,0,3.72,1.54A1.92,1.92,0,0,0,31.4,458a9.87,9.87,0,0,0,1.1-3.64h1.16Zm40.47,47.3H55.29l-2.24,6.24a16.32,16.32,0,0,0-1.1,5.15,4.51,4.51,0,0,0,1.81,4q1.07.75,5.23,1.13v1.75H41.25v-1.75A7.58,7.58,0,0,0,46,515.31q1.85-2.34,4.56-9.66l19.08-51.12h.75L89.6,507.07q2.75,7.47,4.52,9.4a5.62,5.62,0,0,0,3.78,1.7v1.75H72.1v-1.75h1.06c2.07,0,3.53-.35,4.37-1A2.72,2.72,0,0,0,78.4,515a6.76,6.76,0,0,0-.24-1.75c0-.28-.45-1.46-1.18-3.54Zm-1.34-3.5-8-22.07-8.18,22.07Zm59.52,3.5H113.47l-2.24,6.24a16.32,16.32,0,0,0-1.1,5.15,4.51,4.51,0,0,0,1.81,4q1.07.75,5.23,1.13v1.75H99.43v-1.75a7.58,7.58,0,0,0,4.72-2.86q1.84-2.34,4.56-9.66l19.08-51.12h.75l19.24,52.54q2.75,7.47,4.52,9.4a5.62,5.62,0,0,0,3.78,1.7v1.75h-25.8v-1.75h1.06c2.07,0,3.53-.35,4.37-1a2.72,2.72,0,0,0,.87-2.17,6.76,6.76,0,0,0-.24-1.75c-.05-.28-.45-1.46-1.18-3.54Zm-1.34-3.5-8-22.07-8.18,22.07Zm47.4-7.46v18c0,3.46.18,5.65.53,6.54a4.32,4.32,0,0,0,1.87,2.15c.89.54,2.56.8,5,.8v1.75h-27.3v-1.75c2.46,0,4.14-.28,5-.83a4.51,4.51,0,0,0,1.85-2.15c.36-.88.53-3.06.53-6.52V467.09c0-3.46-.18-5.65-.53-6.54a4.32,4.32,0,0,0-1.87-2.15c-.89-.54-2.56-.8-5-.8v-1.75h24.78q9.67,0,14.16,1.61a14.48,14.48,0,0,1,7.32,5.93,18.06,18.06,0,0,1,2.83,10.14,15.54,15.54,0,0,1-11.84,16.11l12.82,21.68a32.79,32.79,0,0,0,3.58,5.25,6,6,0,0,0,3.74,1.61v1.75h-16.8l-17.19-29.2h-3.5Zm0-31.43v28.07h2.24c3.65,0,6.37-.4,8.18-1.2a8.74,8.74,0,0,0,4.27-4.35,18.5,18.5,0,0,0,1.55-8.2q0-7.32-2.85-10.82t-9.19-3.5Zm58.73.24v26.08h1.06q5.07,0,7.36-3.83t2.91-11.29h1.49V504h-1.49a29,29,0,0,0-2-9,9.79,9.79,0,0,0-3.52-4.7,11.48,11.48,0,0,0-5.82-1.21V507.2a31.08,31.08,0,0,0,.37,6.47,3.76,3.76,0,0,0,1.4,1.94,5.6,5.6,0,0,0,3.3.76h3.19q7.47,0,12-4.16t6.47-12.66h1.46l-2.4,20.37h-46.1v-1.75h1.77a6.41,6.41,0,0,0,3.74-1,4.17,4.17,0,0,0,1.57-2.27,23.21,23.21,0,0,0,.43-5.95V466.81a40.2,40.2,0,0,0-.2-5.34,4.61,4.61,0,0,0-1.46-2.55,6,6,0,0,0-4.09-1.32h-1.77v-1.75h44.65V474.8h-1.49q-1.14-6.94-3.21-10a11.86,11.86,0,0,0-5.84-4.44q-2.2-.86-8.26-.85H237.1Zm70.18,38.56,14.48-42.24h21.71v1.75h-1.73a6.5,6.5,0,0,0-3.78,1,4.42,4.42,0,0,0-1.57,2.22,23,23,0,0,0-.43,5.91V509a25.08,25.08,0,0,0,.43,6.14,4.43,4.43,0,0,0,1.77,2.15,6.23,6.23,0,0,0,3.58.92h1.73v1.75H315.62v-1.75h1.73a6.5,6.5,0,0,0,3.78-1,4.5,4.5,0,0,0,1.57-2.27,23.21,23.21,0,0,0,.43-5.95V461.47l-20.46,58.45h-.94L281,461.9V507a47.65,47.65,0,0,0,.2,5.81,6.85,6.85,0,0,0,2.22,3.85q1.71,1.49,5.37,1.49v1.75H270.5v-1.75h.55a7.09,7.09,0,0,0,3.3-.69,5.45,5.45,0,0,0,2.32-2,10.17,10.17,0,0,0,1.22-3.45c.05-.35.08-2,.08-4.82V466.71a24.47,24.47,0,0,0-.43-6.07,4.52,4.52,0,0,0-1.77-2.13,6.15,6.15,0,0,0-3.58-.92H270.5v-1.75h21.79Zm71.15,3.59H359.59l-2.24,6.24a16.32,16.32,0,0,0-1.1,5.15,4.51,4.51,0,0,0,1.81,4q1.06.75,5.23,1.13v1.75H345.55v-1.75a7.58,7.58,0,0,0,4.72-2.86q1.85-2.34,4.56-9.66l19.08-51.12h.75l19.23,52.54q2.76,7.47,4.52,9.4a5.62,5.62,0,0,0,3.78,1.7v1.75h-25.8v-1.75h1.06c2.07,0,3.53-.35,4.37-1a2.72,2.72,0,0,0,.87-2.17,6.76,6.76,0,0,0-.24-1.75c-.05-.28-.45-1.46-1.18-3.54Zm-1.33-3.5-8-22.07L361,498.18Zm59.51,3.5H417.77l-2.24,6.24a16.32,16.32,0,0,0-1.1,5.15,4.51,4.51,0,0,0,1.81,4q1.06.75,5.23,1.13v1.75H403.73v-1.75a7.58,7.58,0,0,0,4.72-2.86q1.85-2.34,4.56-9.66l19.08-51.12h.75l19.23,52.54q2.76,7.47,4.52,9.4a5.62,5.62,0,0,0,3.78,1.7v1.75h-25.8v-1.75h1.06c2.07,0,3.53-.35,4.37-1a2.72,2.72,0,0,0,.87-2.17,6.76,6.76,0,0,0-.24-1.75c-.05-.28-.45-1.46-1.18-3.54Zm-1.34-3.5-7.95-22.07-8.18,22.07ZM54.35,594.86l14.48-42.24H90.54v1.75H88.81a6.5,6.5,0,0,0-3.78,1,4.42,4.42,0,0,0-1.57,2.22,23,23,0,0,0-.43,5.91v42.24a25.08,25.08,0,0,0,.43,6.14A4.43,4.43,0,0,0,85.23,614a6.23,6.23,0,0,0,3.58.92h1.73v1.75H62.69v-1.75h1.73a6.5,6.5,0,0,0,3.78-1,4.44,4.44,0,0,0,1.57-2.27,23.21,23.21,0,0,0,.43-5.95V558.24L49.75,616.69h-.94L28,558.67v45.12a45.52,45.52,0,0,0,.2,5.81,6.85,6.85,0,0,0,2.22,3.85q1.71,1.49,5.37,1.49v1.75H17.57v-1.75h.55a7.09,7.09,0,0,0,3.3-.69,5.45,5.45,0,0,0,2.32-2A10.17,10.17,0,0,0,25,608.84c.05-.35.08-2,.08-4.82V563.48a24.47,24.47,0,0,0-.43-6.07,4.52,4.52,0,0,0-1.77-2.13,6.23,6.23,0,0,0-3.58-.92H17.57v-1.75H39.36Zm39.53-42.25h27.54v1.75H120a8.25,8.25,0,0,0-4.27.78,4.28,4.28,0,0,0-1.65,2.15c-.33.91-.49,3.2-.49,6.85v31.37q0,8.6,1.08,11.39a10.35,10.35,0,0,0,3.56,4.63,10.18,10.18,0,0,0,6.25,1.84A11.79,11.79,0,0,0,131.9,611a14,14,0,0,0,4.56-6.45q1.51-4.11,1.51-14.32V564.13a17.82,17.82,0,0,0-.75-6.14,5.15,5.15,0,0,0-1.89-2.55,9.64,9.64,0,0,0-5-1.09V552.6h18.45v1.75h-1.1a6.18,6.18,0,0,0-3.74,1.09,6,6,0,0,0-2.16,3.26,19.48,19.48,0,0,0-.51,5.43v24.33q0,11.29-1.24,16.3a18.12,18.12,0,0,1-6,9.21q-4.8,4.2-13.1,4.21-6.93,0-10.7-2.22a17.18,17.18,0,0,1-7.28-7.75q-2.13-4.73-2.12-12.71V564.13q0-5.53-.51-6.88a4.32,4.32,0,0,0-1.77-2.15c-.84-.54-2.39-.79-4.64-.76v-1.73Zm58.18,0H179.6v1.75h-1.38a8.25,8.25,0,0,0-4.27.78,4.28,4.28,0,0,0-1.65,2.15c-.33.91-.49,3.2-.49,6.85v31.37q0,8.6,1.08,11.39a10.35,10.35,0,0,0,3.56,4.63,10.18,10.18,0,0,0,6.25,1.84,11.79,11.79,0,0,0,7.38-2.34,14,14,0,0,0,4.56-6.45q1.52-4.11,1.51-14.32V564.13a17.82,17.82,0,0,0-.75-6.14,5.15,5.15,0,0,0-1.89-2.55,9.64,9.64,0,0,0-5-1.09V552.6H207v1.75h-1.1a6.18,6.18,0,0,0-3.74,1.09A6,6,0,0,0,200,558.7a19.48,19.48,0,0,0-.51,5.43v24.33q0,11.29-1.24,16.3a18.12,18.12,0,0,1-6,9.21q-4.8,4.2-13.1,4.21-6.93,0-10.7-2.22a17.18,17.18,0,0,1-7.28-7.75Q159,603.48,159,595.5V564.13q0-5.53-.51-6.88a4.32,4.32,0,0,0-1.77-2.15c-.84-.54-2.39-.79-4.64-.76v-1.73Zm94.13-1.46.43,21.36H245q-1.14-8-5.61-12.92t-9.66-4.89a8.15,8.15,0,0,0-6.35,2.58,8.56,8.56,0,0,0-2.34,5.93,8.34,8.34,0,0,0,.83,3.78,14.93,14.93,0,0,0,3.66,4.39,79.48,79.48,0,0,0,8.54,5.53q9.36,5.54,12.63,10.44a21.05,21.05,0,0,1-2,25.07,17,17,0,0,1-13.24,5.79,18.31,18.31,0,0,1-4.76-.61,31.63,31.63,0,0,1-5.62-2.32,7.34,7.34,0,0,0-3.11-.94,3.51,3.51,0,0,0-2.16.94,6.57,6.57,0,0,0-1.85,2.88h-1.46V594H214q1.72,10.2,6.67,15.57t10.64,5.36a9,9,0,0,0,7-2.88,9.7,9.7,0,0,0,2.62-6.71,10.13,10.13,0,0,0-1-4.39,13.54,13.54,0,0,0-3.05-4,44.74,44.74,0,0,0-7.24-5,61.67,61.67,0,0,1-10.46-7.32,21.81,21.81,0,0,1-4.9-6.76,19.51,19.51,0,0,1-1.71-8.22,19.2,19.2,0,0,1,4.68-13,15,15,0,0,1,11.8-5.39,16.78,16.78,0,0,1,5,.76,23.14,23.14,0,0,1,4.5,2.1,9.52,9.52,0,0,0,3.72,1.54,1.92,1.92,0,0,0,1.61-.76,9.94,9.94,0,0,0,1.1-3.64h1.16Zm28.91,5.15v26.08h1.06q5.07,0,7.36-3.83t2.91-11.29h1.49v33.55h-1.49a29.33,29.33,0,0,0-2-9,9.79,9.79,0,0,0-3.52-4.7,11.48,11.48,0,0,0-5.82-1.21V604a31.08,31.08,0,0,0,.37,6.47,3.76,3.76,0,0,0,1.4,1.94,5.65,5.65,0,0,0,3.3.76h3.19q7.47,0,12-4.16t6.47-12.66h1.46l-2.4,20.37h-46.1v-1.75h1.77a6.41,6.41,0,0,0,3.74-1,4.17,4.17,0,0,0,1.57-2.27,23.21,23.21,0,0,0,.43-5.95V563.58a40.2,40.2,0,0,0-.2-5.34,4.61,4.61,0,0,0-1.46-2.55,6,6,0,0,0-4.09-1.32h-1.77v-1.75h44.65v19h-1.5q-1.14-6.95-3.21-10a11.86,11.86,0,0,0-5.84-4.44q-2.21-.85-8.26-.85h-5.5Zm33.67-3.69h27.54v1.75h-1.38a8.23,8.23,0,0,0-4.27.78,4.28,4.28,0,0,0-1.65,2.15c-.33.91-.49,3.2-.49,6.85v31.37q0,8.6,1.08,11.39a10.35,10.35,0,0,0,3.56,4.63,10.18,10.18,0,0,0,6.25,1.84,11.79,11.79,0,0,0,7.38-2.34,13.93,13.93,0,0,0,4.56-6.45q1.51-4.11,1.51-14.32V564.13a17.82,17.82,0,0,0-.75-6.14,5.15,5.15,0,0,0-1.89-2.55,9.64,9.64,0,0,0-5-1.09V552.6h18.45v1.75h-1.1a6.18,6.18,0,0,0-3.74,1.09,6,6,0,0,0-2.16,3.26,19.48,19.48,0,0,0-.51,5.43v24.33q0,11.29-1.24,16.3a18.12,18.12,0,0,1-6,9.21q-4.8,4.2-13.1,4.21-6.93,0-10.7-2.22a17.18,17.18,0,0,1-7.28-7.75q-2.13-4.73-2.12-12.71V564.13q0-5.53-.51-6.88a4.32,4.32,0,0,0-1.77-2.15c-.84-.54-2.39-.79-4.64-.76v-1.73Zm94.68,42.25,14.48-42.24h21.71v1.75h-1.73a6.5,6.5,0,0,0-3.78,1,4.42,4.42,0,0,0-1.57,2.22,23,23,0,0,0-.43,5.91v42.24a25.08,25.08,0,0,0,.43,6.14,4.43,4.43,0,0,0,1.77,2.15,6.23,6.23,0,0,0,3.58.92h1.73v1.75H411.79v-1.75h1.73a6.5,6.5,0,0,0,3.78-1,4.5,4.5,0,0,0,1.57-2.27,23.21,23.21,0,0,0,.43-5.95V558.24l-20.46,58.45h-.94l-20.77-58v45.12a47.65,47.65,0,0,0,.2,5.81,6.85,6.85,0,0,0,2.22,3.85q1.71,1.49,5.37,1.49v1.75H366.67v-1.75h.55a7.09,7.09,0,0,0,3.3-.69,5.45,5.45,0,0,0,2.32-2,10.17,10.17,0,0,0,1.22-3.45c.05-.35.08-2,.08-4.82V563.48a24.47,24.47,0,0,0-.43-6.07,4.52,4.52,0,0,0-1.77-2.13,6.15,6.15,0,0,0-3.58-.92h-1.69v-1.75h21.79ZM164.16,708.07H154V669.76a35.14,35.14,0,0,1-13.13,7.71v-9.22a29.47,29.47,0,0,0,8.65-4.94,18.69,18.69,0,0,0,6.4-8.48h8.25v53.24Zm23.91-28.61a11.78,11.78,0,0,1-5.73-4.58,12,12,0,0,1-1.79-6.38,12.84,12.84,0,0,1,4.14-9.8q4.14-3.87,11.77-3.87t11.74,3.87a12.77,12.77,0,0,1,4.18,9.8,11.57,11.57,0,0,1-1.92,6.57,12.07,12.07,0,0,1-5.39,4.39,14.24,14.24,0,0,1,6.71,5.17,13.7,13.7,0,0,1,2.3,7.85,16,16,0,0,1-4.68,11.94Q204.72,709,196.94,709a18.87,18.87,0,0,1-12.05-3.8,14.81,14.81,0,0,1-5.68-12.3,15.22,15.22,0,0,1,2.13-7.9A13.78,13.78,0,0,1,188.07,679.46Zm1.16,12.48a9.37,9.37,0,0,0,2.15,6.55,7,7,0,0,0,5.37,2.35,6.74,6.74,0,0,0,5.21-2.26c1.38-1.51,2.06-3.68,2.06-6.53a8.46,8.46,0,0,0-2.1-6,6.93,6.93,0,0,0-5.32-2.26,6.37,6.37,0,0,0-5.55,2.57A9.46,9.46,0,0,0,189.23,691.94Zm.94-22.72a6.34,6.34,0,0,0,1.72,4.74,7.06,7.06,0,0,0,9.21,0,6.38,6.38,0,0,0,1.74-4.76,6.19,6.19,0,0,0-1.72-4.58,6.13,6.13,0,0,0-4.54-1.72,6.32,6.32,0,0,0-4.67,1.74A6.23,6.23,0,0,0,190.17,669.22ZM255,668l-9.84,1.08a7.19,7.19,0,0,0-1.88-4.49,5.5,5.5,0,0,0-3.94-1.45,6.67,6.67,0,0,0-5.45,2.89q-2.22,2.9-2.8,12.05a11.89,11.89,0,0,1,9.44-4.49,14.44,14.44,0,0,1,10.91,4.85Q256,683.32,256,691q0,8.14-4.77,13.06a17.38,17.38,0,0,1-25.46-1.32q-5.17-6.24-5.17-20.46,0-14.58,5.39-21a17.4,17.4,0,0,1,14-6.44,14.87,14.87,0,0,1,10,3.38C252.61,660.44,254.27,663.73,255,668ZM232,690.2q0,4.95,2.28,7.65a6.7,6.7,0,0,0,5.21,2.69,5.92,5.92,0,0,0,4.7-2.21q1.88-2.21,1.88-7.24c0-3.45-.68-6-2-7.58a6.51,6.51,0,0,0-10-.11C232.63,685,232,687.21,232,690.2Zm30,4.23,10.13-1a8.68,8.68,0,0,0,2.57,5.44,7,7,0,0,0,4.92,2,6.82,6.82,0,0,0,5.39-2.59q2.2-2.58,2.21-7.79,0-4.89-2.19-7.33a7.29,7.29,0,0,0-5.7-2.44,10.34,10.34,0,0,0-7.85,3.87l-8.25-1.19,5.21-27.6h26.88v9.51H276.06l-1.59,9a15.55,15.55,0,0,1,18.42,3.22q4.71,4.92,4.7,12.77a19.15,19.15,0,0,1-3.8,11.68q-5.18,7-14.36,7-7.35,0-12-3.94A16.14,16.14,0,0,1,261.91,694.43Zm179.3-257.09H354.28L323.44,385H125.64L94.8,437.34H7.87V350.41l52.34-30.84V117.77L7.87,86.93V0H94.8l30.84,52.34h197.8L354.28,0h86.93V86.93l-52.34,30.84v201.8l52.34,30.84Zm-80.07-12h68.07V357.27l-52.34-30.84V110.91l52.34-30.84V12H361.14L330.3,64.34H118.78L87.94,12H19.87V80.07l52.34,30.84V326.43L19.87,357.27v68.07H87.94L118.78,373H330.3ZM153,149.84l-21.16-37.09V93H121.29l-2.08,2.46,2.08,2.46h8.54v14.83l-21.16,37.09L101.17,160h5.25v9.83a7.84,7.84,0,0,0,5.77,7.55V324.17h36.44V177.35a7.86,7.86,0,0,0,5.67-7.52V160h6.19Zm-.69,20a5.86,5.86,0,0,1-5.85,5.84h-2v-3.92h-3.9v3.92h-3.9v-3.92h-3.9v3.92h-3.91v-3.92H125v3.92h-3.9v-3.92h-3.9v3.92h-2.91a5.85,5.85,0,0,1-5.84-5.84V160h4.85v7.73h3.9V160h3.9v7.73H125V160h3.91v7.73h3.9V160h3.9v7.73h3.9V160h3.9v7.73h3.9V160h3.92ZM227,189.55h42.91v11.62H227Zm41,27.21h1.88V203H231V219.5H268Zm-29.35-3h-1.92V208h1.92Zm8.47,0h-1.92V208h1.92Zm8.47,0h-1.92V208h1.92Zm6.56,0V208h1.92v5.79Zm7.73,10.88H268v-3H231v5.84H222v-7h-9.83v7H199.54v-7h-8.81v7H178.91v-7H170.1v7H159.29v-7h-7.85v15.76H269.92Zm-31.23,6.57h-1.92V226.1h1.92Zm8.47,0h-1.92V226.1h1.92Zm8.47,0h-1.92V226.1h1.92Zm8.47,0h-1.92V226.1h1.92ZM268,218.75h71.42v3.92H268ZM273,178.67v38.17h63.58V178.67Zm21.66,27.75h-6.27v-6.27h6.27Zm1.9-15.87H286.46V180.49h10.06Zm22.62,15.87h-6.27v-6.27h6.27Zm1.9-15.87H311V180.49H321Zm21-15.05-14-14.34-24.27-40.32-24.27,40.32-14,14.34Zm-81.9,113.19h-4.85v-4.85h4.85Zm0-7.38h-4.85v-4.85h4.85Zm0,14.75h-4.85v-4.85h4.85Zm-23.5-7.37h-4.85v-4.85h4.85Zm7.83,7.37h-4.85v-4.85h4.85Zm7.84-14.75h-4.85v-4.85h4.85ZM273,224.67v14.5H151.44v85H232V310.11a10.31,10.31,0,0,1,1.69-5.63l.54.68,2.94-3.73,1,1.26a9.19,9.19,0,0,0-4.16,7.42v14.06h24V310.12a9.19,9.19,0,0,0-4.18-7.44l1-1.25,2.94,3.73.55-.69a10.41,10.41,0,0,1,1.7,5.65v14.05h76.5v-99.5Zm-30.48,33.58a2.79,2.79,0,0,1,2.79-2.79h.3a2.79,2.79,0,0,1,2.79,2.79v6h-5.88Zm-60.66,46.54H176V299h5.87Zm0-24.12H176v-7.5h5.87Zm0-16.46H176v-8.75h5.87Zm15.67,40.58h-5.88V299h5.88Zm0-24.12h-5.88v-7.5h5.88Zm15.67,24.12h-5.88V299h5.88Zm0-24.12h-5.88v-7.5h5.88Zm0-16.46h-5.88v-8.75h5.88ZM263,300.9,260.73,298l-2.94,3.73L254.85,298l-2.94,3.73L249,298,246,301.69,243.09,298l-2.94,3.73L237.21,298l-2.94,3.73L231.33,298,229,300.9V274.42h34Zm18.16-11.31h-2.94v-7.5h2.94Zm12.62-48.7h-8.44v-9.16h8.44Zm10.76,40.23h-7.5V270.93h7.5Zm13.81-40.23H310v-9.16h8.44Zm-81.75,55.17h-4.85v-4.85h4.85Zm0-14.75h-4.85v-4.85h4.85Zm15.67,14.75h-4.85v-4.85h4.85Zm0-7.37h-4.85v-4.85h4.85Zm-7.84,0h-4.85v-4.85h4.85Zm0-7.38h-4.85v-4.85h4.85Z"/></svg>